# xmcd
#
# Track frame offsets: 
#        150
#        12402
#        25150
#        38783
#        51884
#        63128
#        76360
#        89362
#        102527
#        115223
#        126942
#        139457
#        151667
#        163762
#        176117
#        188075
#        200038
#        212476
#        224918
#        238178
#        250386
#        263573
#        277112
#        290176
#        302473
#        316194
#
# Disc length: 4386 seconds
#
# Revision: 0
# Processed by: cddbd v1.5.2PL0 Copyright (c) Steve Scherf et al.
# Submitted via: ExactAudioCopyFreeDBPlugin 1.0
#
DISCID=8a11201a
DTITLE=Bill Gaither - Complete Recorded Works Vol. 5 (1940-1941)
DYEAR=1994
DGENRE=Blues
TTITLE0=Tired of Your Trifling Ways
TTITLE1=Life of Leroy Carr
TTITLE2=Love Crying Blues
TTITLE3=Love Trifling Blues
TTITLE4=Georgia Barrel House
TTITLE5=Wandering Rosa Lee
TTITLE6=Money Kills Love
TTITLE7=It's Just a Woman's Way
TTITLE8=A Short Cut to the Grave
TTITLE9=I'm Behind the 8 Ball Now
TTITLE10=Moonshine by the Keg
TTITLE11=Why Is My Baby So Nice to Me
TTITLE12=Uncle Sam Called the Roll
TTITLE13=I Got So Many Women
TTITLE14=I Can Drink Muddy Water
TTITLE15=You Done Ranked Yourself with Me
TTITLE16=1941 Blues
TTITLE17=Jealous Woman Blues
TTITLE18=That Will Never Do
TTITLE19=Please Baby
TTITLE20=It's a Sad Story
TTITLE21=Old Rainy Day Blues
TTITLE22=Why Do You Tease Me So?
TTITLE23=Worried Life Blues
TTITLE24=Bad Luck Child's Bequest
TTITLE25=Creole Queen
EXTD=
EXTT0=
EXTT1=
EXTT2=
EXTT3=
EXTT4=
EXTT5=
EXTT6=
EXTT7=
EXTT8=
EXTT9=
EXTT10=
EXTT11=
EXTT12=
EXTT13=
EXTT14=
EXTT15=
EXTT16=
EXTT17=
EXTT18=
EXTT19=
EXTT20=
EXTT21=
EXTT22=
EXTT23=
EXTT24=
EXTT25=
PLAYORDER=
